<svg width="11" height="8" viewBox="0 0 11 8" xmlns="http://www.w3.org/2000/svg">
<path d="M10.5 4C10.5 4.21265 10.4137 4.41376 10.2654 4.5466L7.14043 7.34658C6.8709 7.58809 6.47759 7.53914 6.26196 7.23726C6.04633 6.93538 6.09003 6.49488 6.35957 6.25337L8.09326 4.69999L1.125 4.69999C0.779821 4.69999 0.5 4.3866 0.5 4C0.5 3.6134 0.779821 3.3 1.125 3.3L8.09326 3.3L6.35957 1.74662C6.09003 1.50512 6.04633 1.06462 6.26196 0.762737C6.47759 0.460856 6.8709 0.411911 7.14043 0.653416L10.2654 3.4534C10.4137 3.58624 10.5 3.78735 10.5 4Z" />
</svg>
