<svg width="16" height="18" viewBox="0 0 16 18" xmlns="http://www.w3.org/2000/svg">
<path d="M14.4 8.18182H1.6V13.2547C1.6 13.9554 1.60028 14.4318 1.62969 14.8C1.65834 15.1587 1.71047 15.3424 1.77422 15.4703L1.83594 15.583C1.98965 15.8393 2.21005 16.0482 2.47344 16.1855L2.57969 16.2318C2.69934 16.2756 2.86602 16.3113 3.12891 16.3333C3.48894 16.3633 3.95473 16.3636 4.63984 16.3636H11.3602C12.0453 16.3636 12.5111 16.3633 12.8711 16.3333C13.2218 16.304 13.4014 16.2507 13.5266 16.1855L13.6367 16.1223C13.8873 15.9651 14.0916 15.7397 14.2258 15.4703L14.2711 15.3617C14.3139 15.2393 14.3488 15.0688 14.3703 14.8C14.3997 14.4318 14.4 13.9554 14.4 13.2547V8.18182ZM10.4 4.09091V3.27273H5.6V4.09091C5.6 4.54278 5.24183 4.90909 4.8 4.90909C4.35817 4.90909 4 4.54278 4 4.09091V3.27512C3.64363 3.27768 3.36376 3.28347 3.12891 3.30309C2.86602 3.32506 2.69934 3.36078 2.57969 3.40456L2.47344 3.45091C2.21005 3.58818 1.98965 3.79706 1.83594 4.05336L1.77422 4.16602C1.71047 4.29398 1.65834 4.47768 1.62969 4.83638C1.60028 5.20459 1.6 5.68098 1.6 6.38166V6.54545H14.4V6.38166C14.4 5.68098 14.3997 5.20459 14.3703 4.83638C14.3488 4.56752 14.3139 4.39705 14.2711 4.27468L14.2258 4.16602C14.0916 3.89664 13.8873 3.67124 13.6367 3.51403L13.5266 3.45091C13.4014 3.3857 13.2218 3.3324 12.8711 3.30309C12.6362 3.28347 12.3564 3.27768 12 3.27512V4.09091C12 4.54278 11.6418 4.90909 11.2 4.90909C10.7582 4.90909 10.4 4.54278 10.4 4.09091ZM16 13.2547C16 13.9285 16.0008 14.4831 15.9648 14.9334C15.9327 15.3358 15.8685 15.71 15.7203 16.0632L15.6516 16.2134C15.3831 16.7522 14.9746 17.203 14.4734 17.5174L14.2531 17.6436C13.8649 17.846 13.4512 17.9265 13.0016 17.964C12.5613 18.0008 12.0189 18 11.3602 18H4.63984C3.98105 18 3.43874 18.0008 2.99844 17.964C2.60496 17.9312 2.23914 17.8655 1.89375 17.714L1.74688 17.6436C1.2201 17.3691 0.779308 16.9513 0.471876 16.4387L0.348439 16.2134C0.150619 15.8164 0.0719009 15.3933 0.0351578 14.9334C-0.000816428 14.4831 1.46122e-06 13.9285 1.55944e-06 13.2547V6.38166C1.46146e-06 5.70789 -0.000816434 5.15326 0.0351578 4.70295C0.0719009 4.24308 0.150619 3.82001 0.348439 3.42294L0.471876 3.19762C0.779309 2.68503 1.2201 2.26726 1.74688 1.99272L1.89375 1.92241C2.23914 1.77089 2.60496 1.7052 2.99844 1.67232C3.28708 1.6482 3.61963 1.64143 4 1.63876V0.818182C4 0.366312 4.35817 0 4.8 0C5.24183 0 5.6 0.366312 5.6 0.818182V1.63636H10.4V0.818182C10.4 0.366312 10.7582 0 11.2 0C11.6418 0 12 0.366312 12 0.818182V1.63876C12.3804 1.64143 12.7129 1.6482 13.0016 1.67232C13.4512 1.7099 13.8649 1.7904 14.2531 1.99272L14.4734 2.11896C14.9746 2.43338 15.3831 2.88419 15.6516 3.42294L15.7203 3.57315C15.8685 3.92639 15.9327 4.30052 15.9648 4.70295C16.0008 5.15326 16 5.70789 16 6.38166V13.2547Z"/>
</svg>
