<svg width="16" height="16" viewBox="0 0 16 16" xmlns="http://www.w3.org/2000/svg">
<path d="M6.29004 15.4692C6.78255 15.4692 7.16162 15.2673 7.42725 14.8633L15.1968 2.84375C15.2909 2.69987 15.36 2.56152 15.4043 2.42871C15.4486 2.2959 15.4707 2.16309 15.4707 2.03027C15.4707 1.70378 15.3628 1.43538 15.147 1.2251C14.9312 1.01481 14.6545 0.909668 14.3169 0.909668C14.0845 0.909668 13.8908 0.956706 13.7358 1.05078C13.5809 1.13932 13.4315 1.29427 13.2876 1.51562L6.25684 12.6553L2.6543 8.08984C2.39421 7.76335 2.07324 7.6001 1.69141 7.6001C1.35384 7.6001 1.07438 7.70801 0.853027 7.92383C0.631673 8.13965 0.520996 8.41357 0.520996 8.74561C0.520996 8.89502 0.545898 9.0389 0.595703 9.17725C0.651042 9.31559 0.739583 9.45671 0.861328 9.60059L5.16113 14.8965C5.47103 15.2783 5.84733 15.4692 6.29004 15.4692Z" />
</svg>
