<svg width="8" height="8" viewBox="0 0 8 8" xmlns="http://www.w3.org/2000/svg">
<path d="M6.9218 0.185125C7.16844 -0.0615126 7.56823 -0.0615147 7.81487 0.185125C8.06151 0.431765 8.06151 0.831555 7.81487 1.0782L4.89307 4L7.81487 6.9218L7.85846 6.9695C8.06082 7.21756 8.04611 7.58363 7.81487 7.81487C7.58363 8.04611 7.21756 8.06082 6.9695 7.85846L6.9218 7.81487L4 4.89307L1.07819 7.81487C0.831553 8.06151 0.431765 8.06151 0.185124 7.81487C-0.0615169 7.56823 -0.0615168 7.16844 0.185124 6.9218L3.10693 4L0.185124 1.0782L0.141539 1.0305C-0.0608173 0.782438 -0.0461115 0.416364 0.185124 0.185125C0.416362 -0.0461132 0.782436 -0.0608164 1.0305 0.141541L1.07819 0.185125L4 3.10693L6.9218 0.185125Z" />
</svg>
