<svg width="19" height="19" viewBox="0 0 19 19" xmlns="http://www.w3.org/2000/svg">
<path fill-rule="evenodd" clip-rule="evenodd" d="M9.25 1.63462C5.04414 1.63462 1.63462 5.04414 1.63462 9.25C1.63462 11.047 2.25703 12.6986 3.29803 14.001C3.4041 13.7513 3.53868 13.5197 3.69872 13.3065C4.12489 12.7388 4.70502 12.3355 5.32591 12.0497C6.55405 11.4844 8.05457 11.3269 9.25 11.3269C10.4454 11.3269 11.946 11.4844 13.1741 12.0497C13.795 12.3355 14.3751 12.7388 14.8013 13.3065C14.9613 13.5197 15.0959 13.7513 15.202 14.001C16.243 12.6986 16.8654 11.047 16.8654 9.25C16.8654 5.04414 13.4559 1.63462 9.25 1.63462ZM14.08 15.138C14.0341 14.7273 13.893 14.403 13.6939 14.1377C13.4422 13.8024 13.0704 13.5262 12.5951 13.3074C11.631 12.8636 10.3623 12.7115 9.25 12.7115C8.13774 12.7115 6.86903 12.8636 5.90486 13.3074C5.4296 13.5262 5.0578 13.8024 4.80609 14.1377C4.60701 14.403 4.46593 14.7273 4.41999 15.138C5.73432 16.2174 7.41649 16.8654 9.25 16.8654C11.0835 16.8654 12.7657 16.2174 14.08 15.138ZM0.25 9.25C0.25 4.27944 4.27944 0.25 9.25 0.25C14.2206 0.25 18.25 4.27944 18.25 9.25C18.25 14.2206 14.2206 18.25 9.25 18.25C4.27944 18.25 0.25 14.2206 0.25 9.25ZM9.25 4.40385C8.10295 4.40385 7.17308 5.33372 7.17308 6.48077C7.17308 7.62782 8.10295 8.55769 9.25 8.55769C10.3971 8.55769 11.3269 7.62782 11.3269 6.48077C11.3269 5.33372 10.3971 4.40385 9.25 4.40385ZM5.78846 6.48077C5.78846 4.56901 7.33825 3.01923 9.25 3.01923C11.1618 3.01923 12.7115 4.56901 12.7115 6.48077C12.7115 8.39252 11.1618 9.94231 9.25 9.94231C7.33825 9.94231 5.78846 8.39252 5.78846 6.48077Z" />
</svg>
